<svg xmlns="http://www.w3.org/2000/svg" xmlns:xlink="http://www.w3.org/1999/xlink" width="18" height="18" viewBox="0 0 18 18">
    <defs>
        <path id="a" d="M9.008 0C4.047 0 0 4.034 0 9s4.031 9 9.008 9C13.969 18 18 13.966 18 9s-4.031-9-8.992-9zm0 16.743C4.744 16.743 1.27 13.267 1.27 9s3.473-7.743 7.737-7.743c4.263 0 7.736 3.476 7.736 7.743s-3.473 7.743-7.736 7.743zm4.14-8.457H9.642V4.764a.629.629 0 0 0-.635-.636.629.629 0 0 0-.636.636V8.27H4.868a.629.629 0 0 0-.635.636c0 .357.279.636.635.636h3.504v3.507c0 .357.28.636.636.636s.635-.28.635-.636V9.543h3.504c.357 0 .636-.28.636-.636 0-.357-.28-.62-.636-.62z"/>
    </defs>
    <use fill="#3866DF" fill-rule="nonzero" xlink:href="#a"/>
</svg>
