<svg xmlns="http://www.w3.org/2000/svg" width="17" height="17" viewBox="0 0 17 17">
    <path fill="#6B7D86" fill-rule="evenodd" d="M1.936 7.774C2.82 6.84 4.02 6.368 5.501 6.368c2.966 0 6.583.027 8.68.045L9.435 1.536a.749.749 0 0 1 0-1.03.7.7 0 0 1 1.006 0l5.964 6.136v.003c.028.025.047.054.07.085.006.008.015.015.02.024a.952.952 0 0 1 .066.125c.01.028.019.06.023.09l.015.046a.23.23 0 0 1 .004.057c.005.028.01.056.01.085v.007c0 .024-.005.045-.01.068 0 .024 0 .048-.004.072l-.029.09-.014.045a.66.66 0 0 1-.047.093c-.005.01-.01.021-.019.031a.731.731 0 0 1-.076.098c-.004.004-.004.008-.009.011v.001l-.005.003-5.898 6.068a.696.696 0 0 1-1 0 .74.74 0 0 1 0-1.03l4.707-4.844a1111.75 1111.75 0 0 0-8.708-.045c-1.081 0-1.936.323-2.545.96-1.138 1.192-1.114 3.133-1.114 3.168v3.886a.718.718 0 0 1-.709.729.718.718 0 0 1-.708-.729v-3.867c0-.104-.042-2.56 1.511-4.198"/>
</svg>
