<svg xmlns="http://www.w3.org/2000/svg" xmlns:xlink="http://www.w3.org/1999/xlink" width="20" height="22" viewBox="0 0 20 22">
    <defs>
        <path id="a" d="M.017 0H3.97v3.953H.017V0z"/>
    </defs>
    <g fill="none" fill-rule="evenodd">
        <path fill="#404553" d="M18.5 5.837a1.514 1.514 0 0 0-.337-.337c.13-.094.243-.208.337-.337.094.13.208.243.337.337-.13.094-.243.208-.337.337m1.215-.622a.931.931 0 0 1-.93-.93.285.285 0 1 0-.57 0c0 .513-.417.93-.93.93a.285.285 0 1 0 0 .57c.513 0 .93.417.93.93a.285.285 0 1 0 .57 0c0-.513.417-.93.93-.93a.285.285 0 1 0 0-.57M1.5 5.163c.094.13.207.243.337.337-.13.094-.243.208-.337.337a1.515 1.515 0 0 0-.337-.337c.13-.094.243-.208.337-.337m-.285 1.552a.285.285 0 1 0 .57 0c0-.513.417-.93.93-.93a.285.285 0 1 0 0-.57.931.931 0 0 1-.93-.93.285.285 0 1 0-.57 0c0 .513-.417.93-.93.93a.285.285 0 1 0 0 .57c.513 0 .93.417.93.93"/>
        <g transform="translate(8)">
            <mask id="b" fill="#fff">
                <use xlink:href="#a"/>
            </mask>
            <path fill="#404553" d="M1.993 1.377c.155.24.36.445.6.6-.24.154-.445.359-.6.599a1.993 1.993 0 0 0-.6-.6c.241-.154.446-.359.6-.599M.33 2.288c.746 0 1.352.607 1.352 1.353a.312.312 0 0 0 .624 0c0-.746.607-1.353 1.353-1.353a.312.312 0 1 0 0-.624A1.354 1.354 0 0 1 2.305.312a.312.312 0 1 0-.624 0c0 .746-.606 1.352-1.352 1.352a.312.312 0 1 0 0 .624" mask="url(#b)"/>
        </g>
        <path fill="#404553" d="M4.746 10.417l1.058-2.822a.021.021 0 0 1 .02-.012h9.352c.008 0 .017.005.02.012l1.057 2.822H4.746zm12.197.46a.277.277 0 0 0 .04-.265l-1.204-3.21A.64.64 0 0 0 15.176 7H5.824a.64.64 0 0 0-.603.402l-1.204 3.21c-.07.186.082.388.292.388h12.382c.1 0 .194-.046.252-.123zM17.368 15.5c0 .37-.585.786-1.368.786-.783 0-1.368-.415-1.368-.786 0-.37.585-.786 1.368-.786.783 0 1.368.415 1.368.786M14 15.5c0 .841.878 1.5 2 1.5 1.122 0 2-.659 2-1.5s-.878-1.5-2-1.5c-1.122 0-2 .659-2 1.5M5 16.286c-.783 0-1.368-.415-1.368-.786 0-.37.585-.786 1.368-.786.783 0 1.368.415 1.368.786 0 .37-.585.786-1.368.786M5 14c-1.122 0-2 .659-2 1.5S3.878 17 5 17c1.122 0 2-.659 2-1.5S6.122 14 5 14"/>
        <path fill="#404553" d="M19.204 11.67h-1.236l.17-.708h1.066v.708zm-.64 3.069v3.588h-5.48v-2.35c0-.907-.71-1.644-1.581-1.644h-3.2c-.872 0-1.581.737-1.581 1.643v2.351H1.24V14.74c0-.214.063-.419.182-.593l1.272-1.852h11.048c.166 0 .3-.14.3-.312a.306.306 0 0 0-.3-.312H2.965l1.478-4.355a.985.985 0 0 1 .924-.68h9.07c.416 0 .787.273.925.68l1.478 4.355h-1.816c-.166 0-.3.14-.3.312s.134.312.3.312h2.086l1.272 1.852c.12.174.182.379.182.593zm-.64 5.544v.686a.02.02 0 0 1-.02.021h-1.92a.02.02 0 0 1-.02-.02v-.687H17.924zm-14.083.686a.02.02 0 0 1-.02.021h-1.92a.02.02 0 0 1-.02-.02v-.687H3.84v.686zm14.676-2.018a.987.987 0 0 1-.933.708H2.221a.987.987 0 0 1-.933-.708h17.23zm-11.195-.624h5.161v-.707H7.322v.707zm.047-2.663a.987.987 0 0 1 .933-.707h3.2c.437 0 .807.297.934.707H7.369zm-.047 1.332h5.161v-.708H7.322v.708zM.601 11.67v-.708h1.066l.17.708H.6zm18.903-1.332h-1.6a.303.303 0 0 0-.291.237l-.21.877-1.475-4.344c-.223-.656-.821-1.097-1.49-1.097h-9.07c-.67 0-1.268.44-1.491 1.097l-1.474 4.344-.211-.877a.303.303 0 0 0-.291-.237H.3c-.166 0-.3.14-.3.312v1.332c0 .172.134.312.3.312h1.657l-1.023 1.49a1.68 1.68 0 0 0-.294.955v3.9c0 .54.252 1.021.64 1.32v1.01c0 .356.278.645.62.645h1.92c.342 0 .62-.29.62-.645v-.686h10.923v.686c0 .356.278.645.62.645h1.92c.342 0 .62-.29.62-.645v-.998-.011c.388-.3.64-.78.64-1.32v-3.901a1.68 1.68 0 0 0-.294-.956l-1.023-1.49h1.657c.166 0 .3-.139.3-.311V10.65a.306.306 0 0 0-.3-.312z"/>
        <path fill="#404553" d="M3.357 13.78h2.286c.197 0 .357-.174.357-.39 0-.215-.16-.39-.357-.39H3.357c-.197 0-.357.175-.357.39 0 .216.16.39.357.39M15 13.39c0 .216.16.39.357.39h2.286c.197 0 .357-.174.357-.39 0-.215-.16-.39-.357-.39h-2.286c-.197 0-.357.175-.357.39"/>
    </g>
</svg>
