<svg xmlns="http://www.w3.org/2000/svg" width="14" height="22" viewBox="0 0 14 22">
    <g fill="#404553" fill-rule="nonzero">
        <path d="M9.758 18h-.516c-.134 0-.242.19-.242.423 0 .234.108.423.242.423h.516c.134 0 .242-.19.242-.423 0-.234-.108-.423-.242-.423zM12.664 13.003c-.209-.027-.398.134-.423.358l-.238 2.182c-.025.224.124.428.333.454l.045.003c.19 0 .355-.153.378-.361l.238-2.182c.025-.224-.124-.428-.333-.454z"/>
        <path d="M13.913 11.143a.338.338 0 0 0-.256-.12h-.088V6.82C13.57 3.059 10.622 0 7 0S.43 3.059.43 6.819v4.205H.344a.338.338 0 0 0-.256.12.365.365 0 0 0-.085.278l.503 4.432a.935.935 0 0 0 .426.689 1.143 1.143 0 0 0 .155 1.3c-.18.199-.289.466-.289.76 0 .318.13.605.336.809a.96.96 0 0 0-.153.637l.11.965c.063.562.523.986 1.068.986h9.684c.545 0 1.005-.424 1.068-.986l.11-.965a.96.96 0 0 0-.153-.637c.207-.204.336-.491.336-.81 0-.293-.11-.56-.289-.76a1.142 1.142 0 0 0 .155-1.3.936.936 0 0 0 .426-.688l.503-4.432a.365.365 0 0 0-.085-.279zM1.118 6.82C1.118 3.452 3.756.713 7 .713c3.244 0 5.882 2.739 5.882 6.106v4.205h-2.215c.049-.083.09-.17.124-.262.579.101 1.18-.172 1.487-.724a1.54 1.54 0 0 0-.14-1.699 1.54 1.54 0 0 0 .14-1.699 1.422 1.422 0 0 0-1.487-.723c-.205-.572-.733-.975-1.348-.975-.316 0-.61.107-.848.29.14-.4.114-.858-.105-1.253a1.421 1.421 0 0 0-1.487-.723c-.205-.572-.733-.975-1.348-.975-.614 0-1.143.403-1.347.975a1.422 1.422 0 0 0-1.487.723 1.54 1.54 0 0 0 .14 1.7 1.54 1.54 0 0 0-.14 1.698c.079.142.18.27.3.377-.01.021-.018.042-.026.063a1.421 1.421 0 0 0-1.487.724 1.54 1.54 0 0 0 .14 1.699c-.179.223-.29.496-.323.784h-.307V6.819zM3.313 9.3A1.54 1.54 0 0 0 3.453 11l-.018.024H2.12a.788.788 0 0 1 .325-.486.36.36 0 0 0 .155-.298.36.36 0 0 0-.155-.298.8.8 0 0 1-.243-1.045.74.74 0 0 1 .992-.303c.104.054.226.05.327-.01.1-.06.164-.168.17-.288.023-.416.353-.74.75-.74.308 0 .579.195.693.482a1.505 1.505 0 0 0-.335.54 1.421 1.421 0 0 0-1.487.723zm.345-3.921a.8.8 0 0 1-.243-1.044.74.74 0 0 1 .993-.304c.103.054.226.05.326-.01.1-.06.165-.168.172-.288.022-.415.351-.74.75-.74.397 0 .727.325.749.74.006.12.07.229.171.289.1.06.223.063.327.01a.74.74 0 0 1 .992.303.8.8 0 0 1-.243 1.044.364.364 0 0 0-.062.542c-.4.077-.764.328-.981.718a1.532 1.532 0 0 0-.171.994 1.382 1.382 0 0 0-.71.034 1.437 1.437 0 0 0-1.285-.826c-.344 0-.661.127-.91.338a.8.8 0 0 1 .125-1.204.36.36 0 0 0 .156-.298.36.36 0 0 0-.156-.298zm.492 5.322a.8.8 0 0 1-.243-1.044.74.74 0 0 1 .993-.304c.103.054.226.05.327-.01.1-.06.164-.168.17-.288.023-.415.352-.74.75-.74s.728.325.75.74c.007.12.07.228.171.288.1.06.223.064.327.01a.74.74 0 0 1 .992.304.8.8 0 0 1-.243 1.044.36.36 0 0 0-.155.298c0 .12.058.232.155.298a.8.8 0 0 1 .243 1.044.74.74 0 0 1-.992.304.332.332 0 0 0-.327.01.358.358 0 0 0-.171.288c-.022.415-.352.74-.75.74s-.727-.325-.75-.74a.358.358 0 0 0-.17-.288.333.333 0 0 0-.327-.01.739.739 0 0 1-.993-.304.8.8 0 0 1 .243-1.044.36.36 0 0 0 .156-.298.36.36 0 0 0-.156-.298zm4.806.133a1.54 1.54 0 0 0 .057-1.473c.132.06.277.094.43.094.383 0 .74-.214.932-.558a.364.364 0 0 0-.125-.487.337.337 0 0 0-.47.13.388.388 0 0 1-.337.202.397.397 0 0 1-.389-.404c0-.223.175-.404.39-.404a.35.35 0 0 0 .343-.356.35.35 0 0 0-.344-.357c-.593 0-1.075.501-1.075 1.117 0 .145.026.283.075.41a1.4 1.4 0 0 0-.928-.174.365.365 0 0 0-.069-.534.8.8 0 0 1-.243-1.044.74.74 0 0 1 .993-.304c.103.054.226.05.327-.01.1-.06.164-.168.17-.288.023-.415.352-.74.75-.74s.728.325.75.74c.007.12.07.229.171.289.1.06.223.063.327.009a.74.74 0 0 1 .992.304.8.8 0 0 1-.243 1.044.36.36 0 0 0-.155.298c0 .12.058.232.155.298a.8.8 0 0 1 .243 1.044.74.74 0 0 1-.992.304.332.332 0 0 0-.327.01.358.358 0 0 0-.17.288c-.023.416-.353.74-.75.74a.733.733 0 0 1-.488-.188zm3.857 4.936a.215.215 0 0 1-.21.194h-1.208a.35.35 0 0 0-.344.357.35.35 0 0 0 .344.356h.732c.215 0 .39.181.39.404a.397.397 0 0 1-.39.404h-.732a.35.35 0 0 0-.344.356.35.35 0 0 0 .344.357h.732c.215 0 .39.18.39.404a.397.397 0 0 1-.39.403h-.732a.35.35 0 0 0-.344.357.35.35 0 0 0 .344.356h.732c.083 0 .135.047.159.074a.223.223 0 0 1 .052.172l-.11.966a.395.395 0 0 1-.386.356H2.158a.395.395 0 0 1-.386-.356l-.11-.966a.223.223 0 0 1 .052-.172.207.207 0 0 1 .159-.074H9.93a.35.35 0 0 0 .343-.356.35.35 0 0 0-.343-.357H1.873a.397.397 0 0 1-.39-.403c0-.223.175-.404.39-.404h5.86a.35.35 0 0 0 .343-.357.35.35 0 0 0-.344-.356h-5.86a.397.397 0 0 1-.388-.404c0-.223.174-.404.389-.404H9.93a.35.35 0 0 0 .343-.356.35.35 0 0 0-.343-.357H1.397a.215.215 0 0 1-.21-.194l-.458-4.034h2.408c-.046.321.008.66.176.962.307.552.908.826 1.487.723.204.572.733.975 1.347.975.615 0 1.143-.403 1.348-.975.579.102 1.18-.171 1.487-.723a1.53 1.53 0 0 0 .176-.962h4.113l-.458 4.034z"/>
        <path d="M6.048 12c.372 0 .72-.191.907-.5a.311.311 0 0 0-.122-.436.343.343 0 0 0-.457.117.384.384 0 0 1-.328.18.371.371 0 0 1-.38-.361c0-.2.17-.362.38-.362a.327.327 0 0 0 .334-.319c0-.176-.15-.319-.334-.319C5.47 10 5 10.449 5 11c0 .551.47 1 1.048 1zM6.048 7c.372 0 .72-.191.907-.5a.311.311 0 0 0-.122-.435.343.343 0 0 0-.457.116.385.385 0 0 1-.328.18.371.371 0 0 1-.38-.361c0-.2.17-.362.38-.362a.327.327 0 0 0 .334-.319c0-.176-.15-.319-.334-.319C5.47 5 5 5.449 5 6c0 .551.47 1 1.048 1z"/>
    </g>
</svg>
