<svg xmlns="http://www.w3.org/2000/svg" width="29" height="29" viewBox="0 0 29 29">
    <g fill="#404553" fill-rule="evenodd">
        <path d="M27.248 6.27l-2.534 2.938-5.115 3.088a.49.49 0 0 0-.212.265l-.443 1.329-1.173-1.173v-.001l-1.735-1.735-1.173-1.173 1.328-.443a.49.49 0 0 0 .266-.213l3.027-5.042 2.996-2.598c.834-.722 2.145-.678 2.922.1l1.739 1.738c.777.778.826 2.088.107 2.92m.586-3.614L26.096.918c-1.134-1.134-3.044-1.2-4.259-.147L18.782 3.42a.486.486 0 0 0-.1.119L15.71 8.492l-1.91.636a.49.49 0 0 0-.192.813l5.205 5.204a.49.49 0 0 0 .812-.192l.637-1.91 5.027-3.036a.496.496 0 0 0 .118-.1l2.585-2.995c1.047-1.214.977-3.122-.157-4.256"/>
        <path d="M26.959 24.417l-2.885-2.884a.49.49 0 0 0-.694 0l-2.775 2.775a.492.492 0 0 0 0 .694l2.885 2.885a4.418 4.418 0 0 1-4.975-5.946.49.49 0 0 0-.11-.526L7.538 10.548a.49.49 0 0 0-.526-.11 4.418 4.418 0 0 1-5.946-4.974l2.885 2.884a.49.49 0 0 0 .694 0L7.42 5.573a.49.49 0 0 0 0-.694L4.536 1.994A4.417 4.417 0 0 1 9.51 7.94a.492.492 0 0 0 .11.526l10.867 10.867a.49.49 0 0 0 .526.11 4.419 4.419 0 0 1 5.946 4.974zM7.794 22a.491.491 0 0 0-.082.108l-1.686 3.016-2.324 1.162-1.235-1.235 1.162-2.324 3.016-1.686a.476.476 0 0 0 .108-.081l4.904-4.905 1.04 1.041L7.795 22zm18.65-2.26a5.4 5.4 0 0 0-5.483-1.32L10.533 7.993A5.4 5.4 0 0 0 3.426 1.3a.49.49 0 0 0-.168.803L6.38 5.226 4.298 7.307 1.176 4.186a.492.492 0 0 0-.804.168 5.4 5.4 0 0 0 6.692 7.107l3.899 3.9-4.856 4.855-3.088 1.727a.491.491 0 0 0-.2.21l-1.388 2.775a.491.491 0 0 0 .092.566l1.735 1.735a.49.49 0 0 0 .567.092L6.6 25.933a.492.492 0 0 0 .209-.2l1.727-3.088 4.856-4.856 4.1 4.1a5.399 5.399 0 0 0 7.107 6.692.49.49 0 0 0 .168-.804l-3.122-3.122 2.082-2.081 3.122 3.12a.49.49 0 0 0 .803-.167 5.4 5.4 0 0 0-1.209-5.789z"/>
    </g>
</svg>
