<svg xmlns="http://www.w3.org/2000/svg" width="20" height="20" viewBox="0 0 20 20">
    <g fill="#404553" fill-rule="nonzero" stroke="#404553" stroke-width=".2">
        <path d="M18.115 6.806H19V4.484h-1.176a3.487 3.487 0 0 0-3.47-3.194c-1.548 0-2.416.948-2.773 1.46-.043-.002-.086-.008-.13-.008-.816 0-1.519.484-1.842 1.18A3.778 3.778 0 0 0 5.936 1a3.776 3.776 0 0 0-3.76 3.484H1v2.322h.878a5.78 5.78 0 0 0 1.57 3.676l.746 7.083c.012.81.941 1.435 1.741 1.435h8.13c.8 0 1.729-.626 1.741-1.435l.746-7.083a5.777 5.777 0 0 0 1.563-3.676zm-1.452 2.615l.276-2.615h.595a5.19 5.19 0 0 1-.87 2.615zm-5.211-6.098c.503 0 .929.257 1.2.726l.502-.291a2.018 2.018 0 0 0-.953-.866c.358-.433 1.045-1.021 2.154-1.021a2.907 2.907 0 0 1 2.888 2.613H10.03a1.454 1.454 0 0 1 1.423-1.161zm6.967 1.741v1.162H7.968v-.29c0-.48.39-.872.87-.872h9.581zM5.936 1.581a3.197 3.197 0 0 1 3.178 2.903H8.84c-.8 0-1.452.651-1.452 1.452v2.612a.872.872 0 0 1-1.742 0V4.484H2.757A3.197 3.197 0 0 1 5.936 1.58zM2.459 6.806h.602l.275 2.606a5.187 5.187 0 0 1-.877-2.606zm-.878-.58V5.065h3.484v1.16H1.58zm13.646 11.292l-.001.03c0 .449-.654.871-1.161.871h-8.13c-.507 0-1.16-.422-1.16-.87l-.68-6.468a5.776 5.776 0 0 0 3.292 1.227v.595h5.226v-.595a5.77 5.77 0 0 0 3.292-1.232l-.678 6.442zm-7.26-5.195v-.581h4.065v.58H7.968zm8.028-2.094a5.206 5.206 0 0 1-3.382 1.498v-.566H7.387v.567a5.205 5.205 0 0 1-3.383-1.504l-.359-3.418h1.42v1.742c0 .8.65 1.452 1.451 1.452.8 0 1.452-.651 1.452-1.452V6.806h8.387l-.36 3.423z"/>
        <path d="M17.5 15c-.827 0-1.5.673-1.5 1.5s.673 1.5 1.5 1.5 1.5-.673 1.5-1.5-.673-1.5-1.5-1.5zm0 2.4a.901.901 0 0 1 0-1.8.901.901 0 0 1 0 1.8zM6 18h1v1H6zM7 18h1v1H7zM14 18h1v1h-1zM12 15a1.001 1.001 0 0 0 2 0 1.001 1.001 0 0 0-2 0zm1.333 0a.334.334 0 1 1-.667-.001.334.334 0 0 1 .667.001z"/>
    </g>
</svg>
