<svg xmlns="http://www.w3.org/2000/svg" width="15" height="19" viewBox="0 0 15 19">
    <g fill="#404553" fill-rule="nonzero">
        <path d="M13.637 0H1.183C.53 0 0 .504 0 1.123V17.24c0 .62.53 1.124 1.182 1.124h12.455c.652 0 1.183-.504 1.183-1.124V1.123C14.82.503 14.29 0 13.637 0zm0 .612c.297 0 .538.23.538.511v2.55H9.987V.613h3.65zm-4.294 0v3.06H5.477V.613h3.866zm-8.699.511c0-.282.242-.51.538-.51h3.65v3.06H.645v-2.55zM14.175 17.24a.526.526 0 0 1-.538.512H1.182a.526.526 0 0 1-.538-.512V4.285H14.175V17.24z"/>
        <path d="M2.9.918c-.711 0-1.29.55-1.29 1.224 0 .676.579 1.225 1.29 1.225.71 0 1.288-.55 1.288-1.225S3.61.918 2.9.918zm0 1.837c-.356 0-.645-.275-.645-.613 0-.337.29-.612.645-.612.355 0 .644.275.644.612 0 .338-.29.613-.644.613zM11.92 3.367c.711 0 1.289-.55 1.289-1.225S12.63.918 11.92.918c-.71 0-1.288.55-1.288 1.224 0 .676.578 1.225 1.288 1.225zm0-1.837c.356 0 .645.275.645.612 0 .338-.29.613-.645.613-.355 0-.644-.275-.644-.613 0-.337.289-.612.644-.612zM1.61 11.018c0 1.654.775 3.135 1.993 4.146a.313.313 0 0 0 .123.106 5.96 5.96 0 0 0 3.684 1.257c3.197 0 5.799-2.471 5.799-5.509 0-3.037-2.602-5.509-5.8-5.509-3.197 0-5.798 2.472-5.798 5.51zm10.955 0c0 2.7-2.313 4.897-5.155 4.897s-5.155-2.197-5.155-4.897S4.568 6.121 7.41 6.121s5.155 2.197 5.155 4.897z"/>
        <path d="M2.9 11.018c0 .814.244 1.573.66 2.222a.297.297 0 0 0 .096.148c.118.168.25.326.392.476l-.009.012.194.183c.519.49 1.142.842 1.82 1.045l.02.007c.121.036.245.065.37.09.022.005.043.012.065.016.116.022.233.038.352.051l.095.014c.15.013.302.021.455.021.087 0 .172-.008.257-.012.022.004.042.012.065.012.038 0 .074-.01.108-.02 2.286-.207 4.08-2.04 4.08-4.265 0-2.363-2.023-4.285-4.51-4.285-2.487 0-4.51 1.922-4.51 4.285zM5.517 13.3a.321.321 0 0 0 .282.167.315.315 0 0 0 .322-.306.29.29 0 0 0-.034-.133 3.022 3.022 0 0 1 1-.173H8.055a4.66 4.66 0 0 0 2.262-.582c.017.154.149.276.316.276a.315.315 0 0 0 .322-.307.302.302 0 0 0-.172-.266c.152-.11.3-.227.438-.356-.005.024-.008.05-.012.073a3.522 3.522 0 0 1-.203.667c-.018.044-.036.088-.056.132-.03.063-.062.124-.094.185-.021.04-.042.08-.065.12a3.75 3.75 0 0 1-.122.19c-.022.033-.041.066-.064.097-.063.088-.13.173-.201.255l-.011.014a3.832 3.832 0 0 1-.238.248c-.027.027-.058.051-.086.077a3.8 3.8 0 0 1-.174.15c-.036.029-.073.055-.11.082a3.721 3.721 0 0 1-.172.123l-.124.077a4.197 4.197 0 0 1-.311.17 4.08 4.08 0 0 1-.526.213l-.143.045a3.75 3.75 0 0 1-.214.052c-.047.01-.093.022-.14.03-.081.016-.163.026-.245.036-.04.005-.08.013-.122.016a3.948 3.948 0 0 1-.751 0c-.036-.002-.07-.008-.106-.013a4.147 4.147 0 0 1-.264-.038l-.11-.023a3.878 3.878 0 0 1-.253-.062l-.097-.03a4.004 4.004 0 0 1-.596-.24c-.023-.01-.045-.022-.067-.034a4.03 4.03 0 0 1-.254-.146l-.056-.035c-.034-.022-.066-.047-.1-.07a.31.31 0 0 0-.217-.192c.177-.19.38-.353.6-.489zm5.742-2.596a.522.522 0 0 0-.16.126c-.739.897-1.849 1.412-3.045 1.412h-.966a3.632 3.632 0 0 0-2.643 1.13 3.547 3.547 0 0 1-.901-2.354c0-2.025 1.734-3.673 3.866-3.673 2.02 0 3.68 1.48 3.85 3.36z"/>
        <path d="M4.523 9.658a.3.3 0 0 0 .146.41.333.333 0 0 0 .431-.138c.44-.84 1.324-1.36 2.31-1.36a.314.314 0 0 0 .322-.306.314.314 0 0 0-.322-.306c-1.232 0-2.338.651-2.887 1.7z"/>
        <ellipse cx="4.51" cy="10.712" rx="1" ry="1"/>
        <ellipse cx="6.766" cy="14.079" rx="1" ry="1"/>
        <ellipse cx="7.732" cy="13.161" rx="1" ry="1"/>
        <ellipse cx="9.665" cy="13.161" rx="1" ry="1"/>
        <ellipse cx="8.699" cy="14.079" rx="1" ry="1"/>
    </g>
</svg>
