<svg xmlns="http://www.w3.org/2000/svg" xmlns:xlink="http://www.w3.org/1999/xlink" width="35" height="21" viewBox="0 0 35 21">
    <defs>
        <path id="a" d="M17.488 0H0v20.82h34.976V0z"/>
    </defs>
    <g fill="none" fill-rule="evenodd">
        <mask id="b" fill="#fff">
            <use xlink:href="#a"/>
        </mask>
        <path fill="#404553" stroke="#F5F5F5" stroke-width=".3" d="M17.941 8.283a.626.626 0 0 1-.392-.139L13.096 4.55 8.642 8.144a.625.625 0 0 1-.784-.972l4.836-3.904a.617.617 0 0 1 .402-.147.634.634 0 0 1 .402.147l4.836 3.904a.624.624 0 0 1-.393 1.111m-2.007 4.975h-5.676a.625.625 0 0 1-.624-.625v-3.97a.625.625 0 1 1 1.249 0v3.345h4.426V8.663a.625.625 0 1 1 1.25 0v3.97c0 .345-.28.625-.625.625m-2.547 3.881h10.556V1.25H2.249v15.89h5.15a3.061 3.061 0 0 1 2.992-2.431h.004a3.062 3.062 0 0 1 2.992 2.431m18.647 0h1.371v-4.684l-3.06-.578a.625.625 0 0 1-.504-.547l-.416-3.843h-4.233v9.652h.854a3.061 3.061 0 0 1 2.992-2.432h.004a3.062 3.062 0 0 1 2.992 2.432m-23.449.679a1.809 1.809 0 0 0 1.806 1.753 1.81 1.81 0 0 0 1.807-1.807c0-.996-.81-1.806-1.805-1.807-.996 0-1.805.81-1.805 1.807l-.003.054m20.455-1.861a1.81 1.81 0 0 0-1.806 1.807 1.81 1.81 0 0 0 1.808 1.807 1.81 1.81 0 0 0 1.806-1.752.652.652 0 0 1-.002-.055c0-.996-.81-1.806-1.806-1.807m.002 4.863a3.061 3.061 0 0 1-2.993-2.432H13.383a3.061 3.061 0 0 1-2.992 2.432A3.061 3.061 0 0 1 7.4 18.388H1.624A.624.624 0 0 1 1 17.764V.624C1 .28 1.28 0 1.624 0h22.943c.346 0 .625.28.625.624v5.614h4.794c.32 0 .587.24.621.557l.426 3.94 3.113.589a.625.625 0 0 1 .509.613v3.711h.697a.625.625 0 0 1 0 1.249h-.697v.867c0 .345-.28.624-.624.624h-1.997a3.062 3.062 0 0 1-2.992 2.432" mask="url(#b)"/>
    </g>
</svg>
