<svg xmlns="http://www.w3.org/2000/svg" width="13" height="26" viewBox="0 0 13 26">
    <g fill="#404553" fill-rule="nonzero">
        <path d="M9.936.474h-7.52A2.407 2.407 0 0 0 .01 2.88v9.792c0 1.032.839 1.871 1.87 1.871h1.866c.264 0 .506.11.68.309a.89.89 0 0 1 .215.714l-.991 7.411a2.548 2.548 0 1 0 5.05 0l-.991-7.411a.89.89 0 0 1 .215-.714.891.891 0 0 1 .68-.309h1.865c1.032 0 1.871-.839 1.871-1.87V2.878A2.407 2.407 0 0 0 9.936.474zm.534 13.057H8.605a1.914 1.914 0 0 0-1.898 2.168L7.7 23.11a1.536 1.536 0 1 1-3.046 0l.992-7.41a1.914 1.914 0 0 0-1.898-2.169H1.882a.86.86 0 0 1-.85-.726H11.32a.86.86 0 0 1-.849.726zm.86-1.738H1.022V9.131H11.33v2.662zm0-3.673H1.022V2.879c0-.585.363-1.087.875-1.293V6.79a.506.506 0 0 0 1.011 0V1.486h.876v5.302a.506.506 0 0 0 1.011 0V1.486h.875v5.302a.506.506 0 0 0 1.012 0V1.486h.875v5.302a.506.506 0 0 0 1.011 0V1.486h.875v3.466a.506.506 0 0 0 1.012 0V1.586c.512.206.875.708.875 1.293v5.24z"/>
        <path d="M9.949 6.035a.506.506 0 0 0-.506.505v.248a.506.506 0 0 0 1.012 0V6.54a.506.506 0 0 0-.506-.505zM6.176 22.666a.506.506 0 0 0-.506.505v.249a.506.506 0 0 0 1.012 0v-.249a.506.506 0 0 0-.506-.505z"/>
    </g>
</svg>
