<svg xmlns="http://www.w3.org/2000/svg" width="17" height="21" viewBox="0 0 17 21">
    <g fill="#404553" fill-rule="nonzero">
        <path d="M3.427 12.806a.403.403 0 0 0 .53-.171.38.38 0 0 0-.173-.516c-.058-.03-1.417-.73-1.773-2.798a.39.39 0 0 0-.349-.319.394.394 0 0 0-.41.24c-.862 2.087.762 4.486.831 4.587a.407.407 0 0 0 .55.107.378.378 0 0 0 .111-.534c-.01-.014-.682-1.01-.889-2.183.653 1.128 1.52 1.562 1.572 1.587z"/>
        <path d="M4.732 12.742c.18-.04.297-.238.262-.44-.037-.203-.21-.335-.393-.295-.669.15-1.934.97-1.934 2.993 0 1.468.273 2.486.484 3.052C2.42 18.212 2 18.728 2 19.5c0 .87.701 1.5 1.667 1.5H4c.552 0 .892-.466.93-.519a.407.407 0 0 0-.059-.527c-.145-.127-.354-.098-.467.065-.002.003-.171.231-.404.231h-.333c-.497 0-1-.258-1-.75 0-.186 0-.75 1-.75a.33.33 0 0 0 .292-.197.417.417 0 0 0-.014-.384c-.006-.011-.612-1.08-.612-3.17 0-1.9 1.344-2.243 1.399-2.257zM13.849 18.052c.211-.566.484-1.584.484-3.052 0-2.023-1.265-2.842-1.934-2.993-.18-.04-.356.091-.393.294-.036.203.082.4.262.441.058.013 1.399.337 1.399 2.258 0 2.09-.606 3.158-.61 3.167a.416.416 0 0 0-.018.385.33.33 0 0 0 .294.198c1 0 1 .564 1 .75 0 .492-.503.75-1 .75H13c-.23 0-.4-.225-.406-.234-.114-.16-.321-.188-.466-.062a.407.407 0 0 0-.057.527c.037.053.376.519.93.519h.332C14.3 21 15 20.37 15 19.5c0-.772-.421-1.289-1.151-1.448z"/>
        <path d="M10.659 17.227l.636-3.82a.35.35 0 0 0-.69-.115L9.954 17.2H9.9a.35.35 0 1 0 0 .7h.35c1.05 0 1.05.527 1.05.7 0 .46-.528.7-1.05.7H9.9c-.579 0-1.05-.471-1.05-1.05v-4.9a.35.35 0 1 0-.7 0v4.9c0 .579-.471 1.05-1.05 1.05h-.35c-.522 0-1.05-.24-1.05-.7 0-.173 0-.7 1.05-.7h.35a.35.35 0 1 0 0-.7h-.054l-.65-3.908a.35.35 0 1 0-.691.116l.636 3.819C5.494 17.344 5 17.839 5 18.6c0 .811.736 1.4 1.75 1.4h.35c.572 0 1.08-.276 1.4-.701.32.425.828.701 1.4.701h.35c1.014 0 1.75-.589 1.75-1.4 0-.761-.494-1.256-1.341-1.373z"/>
        <path d="M16.638 2.926C15.92 1.422 14.188 0 13.077 0c-.631 0-1.718 1.024-2.263 1.583C10.183 1.017 9.415.684 8.5.684s-1.683.333-2.314.899C5.641 1.024 4.554 0 3.923 0 2.811 0 1.08 1.422.362 2.926.145 3.378 0 3.99 0 4.447c0 .944.733 1.71 1.635 1.71.812 0 1.176-.558 1.467-1.007.036-.055.071-.11.112-.17l1.308-2.053c.1-.158.06-.37-.09-.475a.317.317 0 0 0-.454.095L2.675 4.592l-.114.173c-.294.453-.482.709-.926.709-.541 0-.981-.46-.981-1.027 0-.355.12-.855.292-1.215C1.59 1.884 3.148.684 3.923.684c.279 0 1.109.68 1.801 1.384-1.228 1.494-1.801 3.996-1.801 6.485C3.923 11.71 5.249 13 8.5 13c3.25 0 4.577-1.289 4.577-4.447 0-2.49-.573-4.991-1.801-6.485.692-.704 1.522-1.384 1.8-1.384.776 0 2.333 1.2 2.978 2.548.172.36.292.86.292 1.215 0 .566-.44 1.027-.98 1.027-.461 0-.643-.253-.95-.738l-1.394-2.189a.318.318 0 0 0-.453-.095.352.352 0 0 0-.091.475l1.393 2.186c.31.49.66 1.045 1.494 1.045.902 0 1.635-.767 1.635-1.71 0-.458-.145-1.07-.362-1.522zm-4.215 5.627c0 2.778-1.027 3.763-3.923 3.763s-3.923-.985-3.923-3.763c0-3.576 1.213-7.185 3.923-7.185s3.923 3.609 3.923 7.185z"/>
        <path d="M11.325 11.017c-.06.133-.3.181-.396.183-.419 0-.85-.399-1.007-.857.587-.149 1.007-.595 1.007-1.143 0-.673-.628-1.2-1.429-1.2s-1.428.527-1.428 1.2c0 .548.419.994 1.006 1.143-.156.458-.588.857-1.004.857-.102-.002-.336-.05-.401-.188-.093-.195-.309-.269-.483-.165-.174.103-.24.345-.148.54.282.596.954.613 1.03.613.554 0 1.09-.355 1.428-.862.338.507.874.862 1.429.862.076 0 .755-.018 1.031-.617.09-.196.022-.437-.154-.539-.175-.1-.39-.024-.48.173zM9.5 9.6c-.43 0-.714-.24-.714-.4 0-.16.285-.4.714-.4.436 0 .714.237.714.4 0 .163-.278.4-.714.4zM9.5 6a.5.5 0 1 0-.001-1.001A.5.5 0 0 0 9.5 6zM7.5 6a.5.5 0 1 0-.001-1.001A.5.5 0 0 0 7.5 6z"/>
    </g>
</svg>
