<svg xmlns="http://www.w3.org/2000/svg" width="58" height="21" viewBox="0 0 58 21">
    <g fill="#404553" fill-rule="evenodd">
        <text font-family="ProximaNova-Bold, Proxima Nova" font-size="20" font-weight="bold" transform="translate(0 -3)">
            <tspan x="28" y="19">ISP</tspan>
        </text>
        <path d="M0 10.822c0 5.54 4.708 9.843 10.183 9.843 5.73 0 10.375-4.623 10.375-10.269 0-3.302-1.598-6.2-3.962-8.138L14.87 5.241a6.854 6.854 0 0 1 2.407 5.198c0 3.834-3.174 6.988-7.094 6.988a7.074 7.074 0 0 1-7.073-7.095c0-.468.043-.937.128-1.385L0 10.822zM13.379.512C12.399.148 11.525 0 10.652 0c-.66 0-1.236.085-1.662.17L6.775 4.005c.81-.469 1.853-.724 2.982-.724.66 0 1.257.085 1.875.255L13.379.511z"/>
    </g>
</svg>
